<svg width="28" height="28" viewBox="0 0 28 28" fill="none" xmlns="http://www.w3.org/2000/svg">
<path d="M4.6665 21.5833L13.553 4.921C13.7402 4.56983 14.2466 4.57625 14.4245 4.93267L17.4998 11.0833L4.6665 21.5833Z" fill="#FF8F00"/>
<path d="M4.6665 21.5787L7.90167 1.62925C7.98625 1.10717 8.68742 0.994002 8.93242 1.463L15.1665 13.412L4.6665 21.5787Z" fill="#FFA000"/>
<path d="M4.67139 21.5752L4.78805 21.4836L15.0133 13.118L12.1293 7.59033L4.67139 21.5752Z" fill="#FF6F00"/>
<path d="M4.6665 21.5833L20.2217 6.58409C20.5478 6.26967 21.092 6.45517 21.1585 6.90317L23.3332 21.5833L14.5832 26.6834C14.2279 26.8829 13.7945 26.8829 13.4393 26.6834L4.6665 21.5833Z" fill="#FFC400"/>
</svg>
